<?xml version="1.0" encoding="UTF-8"?>
<svg width="256px" height="256px" viewBox="0 0 256 256" version="1.1" xmlns="http://www.w3.org/2000/svg" xmlns:xlink="http://www.w3.org/1999/xlink">
  <g stroke="none" stroke-width="1" fill="none" fill-rule="evenodd">
    <polygon fill="#ED1B2D" points="0 256 256 256 256 0 0 0"></polygon>
    <polygon fill="#030000" points="14.3704965 120.50156 241.629504 120.50156 241.629504 14.3704965 14.3704965 14.3704965"></polygon>
    <polyline fill="#FFFFFE" points="18.9367376 32.009078 39.6373333 32.009078 49.421617 70.020539 49.6077163 70.020539 59.675234 32.009078 76.6129929 32.009078 86.303773 70.020539 86.4898723 70.020539 96.4638865 32.009078 113.864624 32.009078 94.9514894 103.140766 76.141844 103.140766 66.0743262 65.2228085 65.8836879 65.2228085 55.8198014 103.140766 37.8516879 103.140766 18.9367376 32.009078"></polyline>
    <polygon fill="#FFFFFE" points="147.731972 31.972766 125.806752 31.972766 101.719149 103.105362 119.355007 103.105362 123.963007 89.5537021 145.290894 89.5537021 149.526695 103.105362 172.104624 103.105362"></polygon>
    <polygon fill="#030000" points="127.918298 74.3171631 134.791262 50.0561702 141.099574 74.3171631"></polygon>
    <path d="M224.167035,73.7116596 C232.427121,70.7467801 236.49861,61.0142411 236.49861,52.466383 C236.49861,43.2440284 231.89061,31.9546099 208.176113,31.9546099 L173.834894,31.9546099 L173.834894,103.08539 L194.438355,103.08539 L194.438355,76.1654468 L204.507688,76.1654468 L214.572482,103.08539 L236.590298,103.08539 L224.167035,73.7116596 Z" fill="#FFFFFE"></path>
    <path d="M209.364426,60.9423736 L194.582695,60.9332956 L194.541844,47.0738913 L209.286355,47.0702601 C209.286355,47.0702601 216.206525,46.8487566 216.206525,53.9858913 L216.284596,54.024019 C216.284596,61.1629693 209.364426,60.9423736 209.364426,60.9423736 Z" fill="#030000"></path>
    <polygon fill="#030000" points="14.3704965 241.629504 241.629504 241.629504 241.629504 135.49844 14.3704965 135.49844"></polygon>
    <path d="M226.527409,212.017021 C228.634416,199.020028 228.351182,183.627348 226.809735,170.401589 C225.615069,165.612936 225.785735,160.424851 224.587438,155.636199 C223.619721,154.325333 221.908516,154.72295 220.769225,153.981277 C219.114303,154.665759 219.515551,155.918525 218.317253,157.005163 C218.032204,170.799206 221.055182,183.627348 219.97036,196.398298 C219.515551,196.968397 219.000828,197.252539 218.317253,197.252539 C215.237991,195.772823 213.64026,192.976794 211.477877,190.412255 L211.477877,189.841248 C209.762133,187.788709 207.02965,186.992567 204.062047,187.392 C201.556516,189.556199 197.849962,188.872624 194.48565,189.042383 C190.379664,191.208397 185.936884,192.522894 182.171324,195.598525 C181.42965,199.649135 180.351182,203.465532 180.007125,207.62417 C179.495125,212.074213 182.797707,214.352794 183.542104,218.287206 C184.110388,220.225362 186.105735,220.85356 187.930416,220.73827 C194.030842,224.044482 200.246558,226.894979 208.168941,225.698496 C211.132913,225.127489 212.159636,222.904284 214.209452,220.73827 C219.058019,219.254922 219.97036,225.357163 224.073622,225.698496 C226.012686,225.357163 228.409282,225.014014 229.263523,222.961475 C228.918558,219.028879 226.296828,216.122099 226.527409,212.017021 Z" fill="#FFFFFE"></path>
    <path d="M210.714416,215.552096 C209.459835,217.774394 207.749537,219.197827 205.524516,219.941316 C200.226586,220.680267 195.31992,218.173827 192.926955,214.181316 C190.303409,210.135245 189.22131,203.465628 192.131721,199.1336 C194.580062,195.201004 200.166672,193.262848 204.958047,193.375416 C206.894388,193.832947 208.435835,195.086621 209.344544,196.682536 C209.802076,199.363274 210.314984,202.268238 212.36843,204.095643 C212.36843,207.739557 211.511466,211.846451 210.714416,215.552096 Z" fill="#030000"></path>
    <path d="M160.015513,178.897836 C159.502605,170.916446 155.623569,163.90368 155.913158,155.919567 C154.542378,153.128985 150.722349,153.699992 148.272193,154.840191 C145.703115,155.980389 146.272307,159.740503 146.615456,162.193382 C152.661413,172.283595 149.583059,186.420786 151.519399,197.767396 C154.028562,201.016418 150.322009,203.636333 151.519399,207.341978 C153.114406,210.305042 151.86164,214.468219 152.661413,217.77534 C154.084846,220.909978 157.618009,221.596276 161.096704,220.739311 C166.230321,218.572389 161.895569,212.18873 161.668619,208.198035 C160.642803,198.279396 165.144591,187.789751 160.015513,178.897836" fill="#FFFFFE"></path>
    <path d="M134.807603,190.127206 C134.242043,187.846809 132.356539,187.10695 130.133333,187.10695 C128.021787,187.333901 126.995972,189.156766 126.311489,190.924255 C126.880681,200.504284 123.690667,208.881475 120.556028,216.635007 C120.895546,219.998411 121.751603,223.931007 124.373333,225.412539 C126.995972,226.154213 130.076142,225.412539 131.217248,223.247433 C133.385986,219.598979 128.021787,217.944057 129.849191,214.468085 C133.956085,207.341844 135.608284,199.303262 134.807603,190.127206" fill="#FFFFFE"></path>
    <path d="M136.546043,172.318865 L136.189277,171.810496 L135.108085,171.915801 C132.443688,172.166355 128.793418,172.510411 127.711319,176.129816 L127.455319,176.987688 L128.256908,177.388028 C129.662184,178.090667 130.987574,178.446525 132.195858,178.446525 C132.894865,178.446525 133.555745,178.324879 134.155801,178.083404 L134.298326,178.013504 C134.851177,177.689418 136.684936,176.493844 137.066213,174.733617 C137.247773,173.894809 137.068028,173.059631 136.546043,172.318865" fill="#FFFFFE"></path>
    <path d="M83.6366525,189.560738 C82.4964539,186.997106 83.4097021,183.974128 83.9207943,181.350582 C81.526922,173.883915 82.0407376,165.218043 79.5333901,157.804936 C78.5629504,154.843688 78.5066667,150.223887 74.6294468,149.596596 C69.3269787,153.36034 72.9200567,160.770723 74.0593475,165.503092 C76.5676028,169.66627 73.4329645,175.822979 76.7963688,179.98434 C77.3673759,184.030411 76.3415603,188.07739 73.2595745,190.927887 C73.375773,195.091064 67.9026383,193.83739 67.5041135,197.257078 C73.7742979,202.046638 69.3269787,211.505021 69.9569929,218.575887 C71.264227,221.255716 73.6036312,221.99739 76.7963688,221.599773 C79.2474326,219.886752 80.2732482,216.239206 79.8166241,213.10366 C80.1034894,206.548426 78.733617,198.852993 83.067461,194.520965 C87.9695887,193.723007 93.2148652,194.177816 95.9509787,198.625135 C99.1437163,202.444255 97.947234,209.682156 97.0339858,214.471716 L96.521078,215.268766 C96.1797447,217.208738 95.6668369,219.945759 97.6040851,221.312 C100.171348,222.111773 102.736794,221.255716 104.444369,219.145986 C108.207206,212.876709 106.554099,203.470071 105.814241,196.402837 C102.564312,187.567206 91.7324255,189.389163 83.6366525,189.560738" fill="#FFFFFE"></path>
    <path d="M57.5107821,219.369636 C54.1482857,219.253438 50.9546403,219.483111 48.2167112,220.736785 C44.1688247,221.532927 40.0646545,220.852076 36.9881155,218.569863 C35.9042006,217.089239 34.9346686,215.493324 35.3341013,213.382686 C35.8451935,205.856104 32.6542715,196.795338 38.0674913,191.206913 C40.3487963,187.445891 45.5377892,189.554714 48.2167112,186.306601 C49.9279169,184.937636 53.4628956,188.071367 53.4057041,184.652586 L52.6086545,182.997664 C42.8579594,179.978317 36.4180162,186.474544 29.0639169,190.637721 C23.4182998,195.59704 26.0409381,204.202998 25.7567963,211.446345 C27.0667537,215.436133 25.1285977,220.678686 28.492002,223.757948 C34.3082857,228.090884 44.1688247,227.123168 51.2387821,225.697012 C53.7479452,225.069721 56.1990091,223.702572 58.0790658,222.10575 C58.4203991,221.363168 58.7644559,219.880728 57.5107821,219.369636" fill="#FFFFFE"></path>
  </g>
</svg>